<?xml version="1.0" encoding="UTF-8" standalone="no"?>
<svg width="240" height="240" viewBox="0 0 240 240" fill="none" xmlns="http://www.w3.org/2000/svg">
  <!-- Background Circle -->
  <circle cx="120" cy="120" r="120" fill="#F5F9FF"/>
  
  <!-- Speech Bubble with Gradient -->
  <path d="M180 90C180 79 171 70 160 70H80C69 70 60 79 60 90V130C60 141 69 150 80 150H94V170C94 174.4 99.2 176.8 102.4 173.6L122.4 153.6C123.2 152.8 124.4 152.4 125.6 152H160C171 152 180 143 180 132V90Z" fill="url(#paint0_linear)"/>
  
  <!-- Star in Speech Bubble -->
  <path d="M120 92L124.7 106.6H140.2L127.7 115.8L132.5 130.4L120 121.2L107.5 130.4L112.3 115.8L99.8 106.6H115.3L120 92Z" fill="#FFFFFF"/>
  
  <!-- Text "QuickFeedback" -->
  <text x="120" y="205" font-family="Arial, sans-serif" font-size="20" font-weight="700" text-anchor="middle" fill="#2563EB">QuickFeedback</text>
  
  <!-- Gradients Definition -->
  <defs>
    <linearGradient id="paint0_linear" x1="60" y1="70" x2="180" y2="170" gradientUnits="userSpaceOnUse">
      <stop offset="0" stop-color="#2563EB"/>
      <stop offset="1" stop-color="#4338CA"/>
    </linearGradient>
  </defs>
</svg> 